<?xml version="1.0" encoding="UTF-8"?>
<svg id="Layer_1" data-name="Layer 1" xmlns="http://www.w3.org/2000/svg" viewBox="0 0 1280 787.65">
  <defs>
    <style>
      .cls-1 {
        fill: #f9ed32;
      }

      .cls-1, .cls-2, .cls-3 {
        stroke-width: 0px;
      }

      .cls-2 {
        fill: #1ca1dc;
      }

      .cls-3 {
        fill: #e1156a;
      }
    </style>
  </defs>
  <polygon class="cls-3" points="793 140.92 792.88 181.68 607.18 74.46 607.29 33.7 793 140.92"/>
  <polygon class="cls-3" points="669.6 140.92 669.49 181.67 576.63 128.07 576.75 87.31 669.6 140.92"/>
  <polygon class="cls-2" points="731.3 140.92 731.19 181.68 608.18 253.16 608.3 212.4 731.3 140.92"/>
  <polygon class="cls-2" points="607.89 140.92 607.78 181.67 361.77 324.64 361.89 283.88 607.89 140.92"/>
  <polygon class="cls-3" points="608.3 212.4 608.18 253.16 577.23 235.29 577.35 194.53 608.3 212.4"/>
  <polygon class="cls-2" points="823.95 158.79 823.84 199.55 639.34 306.77 639.45 266.01 823.95 158.79"/>
  <polygon class="cls-3" points="886.26 266.01 886.15 306.76 793.3 253.16 793.41 212.4 886.26 266.01"/>
  <polygon class="cls-2" points="824.56 266.01 824.44 306.76 793.69 324.64 793.8 283.88 824.56 266.01"/>
  <polygon class="cls-2" points="576.75 87.31 576.63 128.07 238.38 324.64 238.49 283.88 576.75 87.31"/>
  <polygon class="cls-3" points="1071.56 301.75 1071.45 342.51 823.84 199.55 823.95 158.79 1071.56 301.75"/>
  <polygon class="cls-3" points="886.47 301.75 886.35 342.51 855.4 324.64 855.51 283.88 886.47 301.75"/>
  <polygon class="cls-3" points="454.55 301.75 454.43 342.51 423.48 324.64 423.59 283.88 454.55 301.75"/>
  <polygon class="cls-1" points="423.59 283.88 546.59 212.4 577.55 230.27 454.55 301.75 423.59 283.88"/>
  <polygon class="cls-2" points="577.55 230.27 577.43 271.03 454.43 342.51 454.55 301.75 577.55 230.27"/>
  <polygon class="cls-2" points="1009.86 301.75 1009.75 342.5 917.49 396.11 917.61 355.36 1009.86 301.75"/>
  <polygon class="cls-2" points="639.65 301.75 639.54 342.51 547.29 396.12 547.41 355.36 639.65 301.75"/>
  <polygon class="cls-3" points="547.41 355.36 547.29 396.12 485.38 360.38 485.5 319.62 547.41 355.36"/>
  <polygon class="cls-3" points="1195.37 373.23 1195.25 413.98 1102.4 360.38 1102.52 319.62 1195.37 373.23"/>
  <polygon class="cls-2" points="1102.52 319.62 1102.4 360.38 1010.15 413.99 1010.27 373.23 1102.52 319.62"/>
  <polygon class="cls-3" points="1010.27 373.23 1010.15 413.99 979.2 396.11 979.32 355.36 1010.27 373.23"/>
  <polygon class="cls-3" points="917.81 391.1 917.7 431.85 701.04 306.77 701.16 266.01 917.81 391.1"/>
  <polygon class="cls-3" points="794.41 391.1 794.29 431.86 639.54 342.51 639.65 301.75 794.41 391.1"/>
  <polygon class="cls-2" points="207.74 301.75 207.63 342.51 53.87 431.86 53.99 391.1 207.74 301.75"/>
  <polygon class="cls-3" points="177.39 391.1 177.27 431.86 146.32 413.99 146.44 373.23 177.39 391.1"/>
  <polygon class="cls-2" points="208.14 373.23 208.02 413.99 177.27 431.86 177.39 391.1 208.14 373.23"/>
  <polygon class="cls-3" points="53.99 391.1 53.87 431.86 22.92 413.99 23.04 373.23 53.99 391.1"/>
  <polygon class="cls-3" points="516.85 408.97 516.74 449.73 300.08 324.64 300.19 283.88 516.85 408.97"/>
  <polygon class="cls-3" points="393.45 408.97 393.34 449.73 207.63 342.51 207.74 301.75 393.45 408.97"/>
  <polygon class="cls-3" points="270.05 408.97 269.93 449.73 208.02 413.99 208.14 373.23 270.05 408.97"/>
  <polygon class="cls-2" points="732.71 391.1 732.6 431.86 671.09 467.6 671.21 426.84 732.71 391.1"/>
  <polygon class="cls-2" points="1133.67 373.23 1133.56 413.99 1010.56 485.47 1010.67 444.71 1133.67 373.23"/>
  <polygon class="cls-3" points="1010.67 444.71 1010.56 485.47 948.65 449.73 948.77 408.97 1010.67 444.71"/>
  <polygon class="cls-2" points="948.77 408.97 948.65 449.73 856.4 503.34 856.52 462.58 948.77 408.97"/>
  <polygon class="cls-2" points="331.74 408.97 331.63 449.73 239.38 503.34 239.5 462.58 331.74 408.97"/>
  <polygon class="cls-2" points="856.11 391.1 855.99 431.86 702.24 521.21 702.36 480.45 856.11 391.1"/>
  <polygon class="cls-2" points="670.8 355.36 670.69 396.12 424.69 539.08 424.8 498.32 670.8 355.36"/>
  <polygon class="cls-3" points="702.36 480.45 702.24 521.21 609.39 467.6 609.5 426.84 702.36 480.45"/>
  <polygon class="cls-1" points="301.2 462.58 393.45 408.97 207.74 301.75 53.99 391.1 23.04 373.23 576.54 51.57 731.3 140.92 608.3 212.4 577.35 194.53 669.6 140.92 576.75 87.31 238.49 283.88 455.16 408.97 332.15 480.45 301.2 462.58"/>
  <polygon class="cls-3" points="332.15 480.45 332.04 521.21 301.08 503.34 301.2 462.58 332.15 480.45"/>
  <polygon class="cls-2" points="455.16 408.97 455.04 449.73 332.04 521.21 332.15 480.45 455.16 408.97"/>
  <polygon class="cls-3" points="980.11 498.32 980 539.08 918.1 503.34 918.21 462.58 980.11 498.32"/>
  <polygon class="cls-3" points="856.72 498.32 856.6 539.08 825.65 521.21 825.77 480.45 856.72 498.32"/>
  <polygon class="cls-2" points="825.77 480.45 825.65 521.21 764.15 556.95 764.26 516.19 825.77 480.45"/>
  <polygon class="cls-3" points="764.26 516.19 764.15 556.95 733.19 539.08 733.31 498.32 764.26 516.19"/>
  <polygon class="cls-2" points="578.96 480.45 578.85 521.21 517.34 556.95 517.46 516.19 578.96 480.45"/>
  <polygon class="cls-3" points="517.46 516.19 517.34 556.95 486.39 539.08 486.5 498.32 517.46 516.19"/>
  <polygon class="cls-3" points="733.72 569.8 733.6 610.56 578.85 521.21 578.96 480.45 733.72 569.8"/>
  <polygon class="cls-3" points="610.31 569.8 610.19 610.56 579.24 592.69 579.35 551.93 610.31 569.8"/>
  <polygon class="cls-2" points="486.71 534.06 486.59 574.82 425.09 610.56 425.21 569.8 486.71 534.06"/>
  <polygon class="cls-2" points="579.35 551.93 579.24 592.69 517.74 628.43 517.85 587.67 579.35 551.93"/>
  <polygon class="cls-3" points="517.85 587.67 517.74 628.43 486.79 610.56 486.91 569.8 517.85 587.67"/>
  <polygon class="cls-2" points="672.01 569.8 671.9 610.56 548.9 682.04 549.01 641.28 672.01 569.8"/>
  <polygon class="cls-3" points="641.66 659.15 641.55 699.91 610.6 682.04 610.71 641.28 641.66 659.15"/>
  <polygon class="cls-1" points="578.75 444.71 764.46 551.93 856.72 498.32 825.77 480.45 764.26 516.19 733.31 498.32 917.81 391.1 701.16 266.01 762.66 230.27 824.56 266.01 793.8 283.88 855.71 319.62 886.47 301.75 855.51 283.88 886.26 266.01 793.41 212.4 824.16 194.53 1009.86 301.75 917.61 355.36 1010.47 408.97 1102.72 355.36 1133.67 373.23 1010.67 444.71 948.77 408.97 856.52 462.58 918.42 498.32 641.66 659.15 610.71 641.28 733.72 569.8 578.96 480.45 517.46 516.19 486.5 498.32 578.75 444.71"/>
  <polygon class="cls-2" points="918.42 498.32 918.31 539.08 641.55 699.91 641.66 659.15 918.42 498.32"/>
  <polygon class="cls-1" points="638.04 15.83 1257.08 373.23 703.57 694.89 672.61 677.02 980.11 498.32 918.21 462.58 948.97 444.71 1010.87 480.45 1195.37 373.23 1102.52 319.62 1010.27 373.23 979.32 355.36 1071.56 301.75 823.95 158.79 639.45 266.01 856.11 391.1 702.36 480.45 609.5 426.84 701.76 373.23 732.71 391.1 671.21 426.84 702.16 444.71 794.41 391.1 639.65 301.75 547.41 355.36 485.5 319.62 793 140.92 607.29 33.7 638.04 15.83"/>
  <polygon class="cls-3" points="703.57 694.89 703.45 735.65 672.5 717.78 672.61 677.02 703.57 694.89"/>
  <polygon class="cls-2" points="1257.08 373.23 1256.96 413.98 703.45 735.65 703.57 694.89 1257.08 373.23"/>
  <polygon class="cls-1" points="672.01 569.8 549.01 641.28 672.82 712.76 642.07 730.63 84.94 408.97 115.69 391.1 208.55 444.71 270.05 408.97 208.14 373.23 177.39 391.1 146.44 373.23 207.94 337.49 331.74 408.97 239.5 462.58 332.35 516.19 516.85 408.97 300.19 283.88 576.95 123.05 607.89 140.92 361.89 283.88 547.6 391.1 639.85 337.49 670.8 355.36 424.8 498.32 486.71 534.06 425.21 569.8 518.06 623.41 610.31 569.8 579.35 551.93 517.85 587.67 486.91 569.8 579.16 516.19 672.01 569.8"/>
  <polygon class="cls-2" points="672.82 712.76 672.7 753.52 641.95 771.39 642.07 730.63 672.82 712.76"/>
  <polygon class="cls-3" points="642.07 730.63 641.95 771.39 84.82 449.73 84.94 408.97 642.07 730.63"/>
</svg>